<?xml version="1.0" encoding="UTF-8"?>
<svg id="Layer_1" data-name="Layer 1" xmlns="http://www.w3.org/2000/svg" xmlns:xlink="http://www.w3.org/1999/xlink" viewBox="0 0 297.3 296.16">
  <defs>
    <style>
      .cls-1 {
        fill: url(#h_2);
      }

      .cls-2 {
        fill: url(#hhh);
      }

      .cls-3 {
        fill: url(#linear-gradient);
      }

      .cls-4 {
        fill: #f1f2f2;
      }
    </style>
    <linearGradient id="linear-gradient" x1="156.98" y1="251.99" x2="219.73" y2="251.99" gradientUnits="userSpaceOnUse">
      <stop offset="0" stop-color="#e6e7e8"/>
      <stop offset="1" stop-color="#bcbec0"/>
    </linearGradient>
    <linearGradient id="hhh" x1="119.25" y1="179.06" x2="248.01" y2="179.06" gradientUnits="userSpaceOnUse">
      <stop offset="0" stop-color="#e6e7e8"/>
      <stop offset="1" stop-color="#bcbec0"/>
    </linearGradient>
    <linearGradient id="h_2" data-name="h 2" x1="1.14" y1="147.92" x2="297.3" y2="147.92" gradientUnits="userSpaceOnUse">
      <stop offset="0" stop-color="#b5fdaf"/>
      <stop offset=".26" stop-color="#4bee8f"/>
      <stop offset=".72" stop-color="#6bada1"/>
      <stop offset="1" stop-color="#7e8aac"/>
    </linearGradient>
  </defs>
  <path class="cls-3" d="m219.73,246.07c0,2.12-.83,5.22-.84,7.34,0,1.78-5.73,2.65-6.36,4.35-1.38,3.74-5.33,3.71-8.52,4.37-7.12,1.48-14.32,2.59-21.49,3.86-2.72.48-5.41,1.09-8.15,1.45-5.21.68-13.39-1.95-13.62-9.61-.18-5.91-.17-11.82-.21-17.73-.02-3.13-.31-3.12-3.57-3.65l62.75,9.62Z"/>
  <path class="cls-2" d="m218.83,203.1c2.05-.53,4.19-.65,6.27-1.06,5.62-1.11,11.27-2.11,16.83-3.48,3.59-.88,6.11-4.65,6.08-8.45-.03-3.13-.31-6.26-.41-9.4-.06-1.92-.12-3.84-.17-5.76v-.53s-126.31-28.09-126.31-28.09c.76.65,1.03,1.6,1.02,3.04-.09,12.84-1.02,23.28-1.02,36.11-2.05-1.37-2.91,2.42,0,2.4-.13,7.93-.38,15.96-.51,23.88l98.22-8.67Z"/>
  <path class="cls-4" d="m219.77,247.68c.06-13.7.05-27.41.07-41.11,0-1.02-.16-2.07.13-3.03.18-.58,1-1.34,1.7-1.48l-100.25,6.81c-.11,5.03-.21,10.05-.31,15.08-.01.64.16,1.29.34,1.91,1.29,4.45,5.32,6.53,10.61,7.57,6.55,1.3,13.07,2.69,19.62,3.98,4.58.9,9.15,1.86,13.79,2.5l54.29,7.77Z"/>
  <path class="cls-4" d="m251.94,178c-.26-8.63-.51-17.26-.76-25.89-.17-5.74-.35-11.47-.46-17.21-.18-9.76-.24-19.52-.5-29.27-.14-5.25-.46-10.51-.91-15.74-.66-7.7-6.54-12.16-12.77-13.72-2.88-.72-5.78-1.37-8.63-2.17-8.81-2.49-17.6-5.09-26.42-7.56-5.82-1.63-11.69-3.07-17.52-4.66-11.3-3.07-22.6-6.12-33.87-9.3-8.79-2.48-17.48-5.27-26.3-7.62-2.47-.66-5.14-.51-7.17-2.39-.12-.12-.45,0-.68-.03-1.75-.23-3.57-.25-5.25-.74-3.42-.99-6.73-2.35-10.15-3.34-4.03-1.16-8.15-2.01-12.2-3.11-9.21-2.52-18.38-5.15-27.59-7.65-2.68-.73-5.48-.68-8.07.33-5.66,2.22-8.76,7.65-8.56,14.29.17,5.59.24,11.19.25,16.79.01,17.6-.05,35.19-.03,52.79,0,10.7,6.06,19.06,16.44,21.87,8.01,2.17,14.3,6.94,22.33,9.03,10.58,2.76,38.8,10.85,38.38,8.94l130.43,26.36Z"/>
  <path class="cls-1" d="m297.3,43.76v208.08c-.19,1.62-.32,3.25-.57,4.85-1.41,8.95-5.03,16.92-11.08,23.67-7.26,8.1-16.27,13.18-27.07,14.92-1.88.3-3.79.48-5.68.72H45.3c-.43-.08-.85-.17-1.28-.23-2.95-.48-5.97-.71-8.85-1.47-9.06-2.39-16.66-7.19-22.81-14.29-4.96-5.74-8.36-12.26-10.05-19.65-.48-2.1-.78-4.23-1.17-6.35,0-70.8,0-141.6,0-212.4.2-1.21.39-2.43.61-3.64,1.9-10.22,6.57-18.91,14.24-25.97C22.24,6.23,29.51,2.44,37.85.74c1.67-.34,3.37-.6,5.05-.9,70.88,0,141.76,0,212.64,0,.27.08.53.19.8.22,11.84,1.45,21.71,6.62,29.57,15.6,5.78,6.6,9.33,14.24,10.71,22.9.27,1.72.46,3.46.68,5.2Zm-129.84,202.15s-.06,0-.09,0c.11,2.35.34,4.71.3,7.06-.1,6.72,4.73,10.53,10.65,10.59,1.86.02,3.74-.24,5.58-.57,3.9-.7,7.77-1.53,11.65-2.31,5.41-1.08,10.82-2.15,16.23-3.27,2.24-.46,3.75-1.84,4.22-4.1.41-1.99.84-4.02.85-6.03.07-14.16.04-28.32.04-42.48,0-2.52.11-2.67,2.56-3.14,7.03-1.36,14.03-2.84,21.09-4.03,4.85-.82,7.53-5.13,7.33-8.98-.3-5.9-.51-11.81-.73-17.71-.18-4.67-.32-9.34-.47-14.01-.17-5.31-.35-10.62-.49-15.93-.12-4.63-.16-9.27-.25-13.9-.15-7.83-.27-15.66-.5-23.49-.11-3.51-.41-7.01-.73-10.51-.6-6.59-4.19-10.82-10.48-12.72-3.63-1.1-7.33-1.99-10.98-3.05-9.33-2.7-18.64-5.48-27.99-8.15-12.92-3.68-25.87-7.26-38.8-10.91-11.43-3.22-22.85-6.48-34.27-9.72-.38-.11-.74-.3-1.12-.41-1.75-.51-3.5-1.03-5.27-1.51-.77-.21-1.58-.25-2.35-.47-15.06-4.36-30.1-8.75-45.16-13.09-2.22-.64-4.45-1.43-6.82-1.02-6.57,1.12-11.14,6.54-11.11,13.25.02,3.79.2,7.59.22,11.38.1,20.03.13,40.07.27,60.1.05,6.8,3.2,12.09,8.57,16.1,2.85,2.13,6.25,2.95,9.62,3.87,16.48,4.48,32.94,9.02,49.41,13.52,3.5.96,3.46.93,3.44,4.57-.13,21.55.27,43.1-.46,64.65-.19,5.65,3.11,9.99,8.61,11.41,11.96,3.08,23.97,6,35.96,8.97,1.01.25,1.52.74,1.49,1.82-.04,1.4-.01,2.8-.01,4.2Z"/>
</svg>